<svg width="26" height="24" viewBox="0 0 26 24" fill="none" xmlns="http://www.w3.org/2000/svg">
<g filter="url(#filter0_d_3_67)">
<path d="M21.216 5.472C20.7662 4.40742 20.1142 3.44021 19.296 2.624C18.4798 1.80582 17.5126 1.15377 16.448 0.704C15.342 0.236 14.17 0 12.96 0C11.75 0 10.578 0.236 9.472 0.704C8.40742 1.15377 7.44021 1.80582 6.624 2.624C5.80582 3.44021 5.15377 4.40742 4.704 5.472C4.236 6.578 4 7.75 4 8.96C4 11.614 5.166 14.114 7.198 15.822L7.232 15.85C7.348 15.946 7.494 16 7.644 16H18.278C18.428 16 18.574 15.946 18.69 15.85L18.724 15.822C20.754 14.114 21.92 11.614 21.92 8.96C21.92 7.75 21.682 6.578 21.216 5.472ZM17.948 14.48H7.972C7.19919 13.7832 6.58154 12.9317 6.15911 11.9807C5.73669 11.0297 5.51894 10.0006 5.52 8.96C5.52 6.972 6.294 5.104 7.7 3.7C9.106 2.294 10.974 1.52 12.96 1.52C14.948 1.52 16.816 2.294 18.22 3.7C19.626 5.106 20.4 6.974 20.4 8.96C20.4 11.072 19.51 13.07 17.948 14.48ZM15.19 6.19C15.1599 6.16022 15.1193 6.14352 15.077 6.14352C15.0347 6.14352 14.9941 6.16022 14.964 6.19L13.274 7.88C12.9 7.78 12.486 7.876 12.192 8.17C12.0879 8.27394 12.0053 8.39739 11.9489 8.53329C11.8925 8.66919 11.8635 8.81487 11.8635 8.962C11.8635 9.10913 11.8925 9.25481 11.9489 9.39071C12.0053 9.52661 12.0879 9.65006 12.192 9.754C12.2959 9.85813 12.4194 9.94075 12.5553 9.99711C12.6912 10.0535 12.8369 10.0825 12.984 10.0825C13.1311 10.0825 13.2768 10.0535 13.4127 9.99711C13.5486 9.94075 13.6721 9.85813 13.776 9.754C13.9153 9.61513 14.0155 9.44195 14.0664 9.25196C14.1173 9.06198 14.1172 8.86192 14.066 8.672L15.756 6.982C15.818 6.92 15.818 6.818 15.756 6.756L15.19 6.19ZM12.52 4.16H13.4C13.488 4.16 13.56 4.088 13.56 4V2.4C13.56 2.312 13.488 2.24 13.4 2.24H12.52C12.432 2.24 12.36 2.312 12.36 2.4V4C12.36 4.088 12.432 4.16 12.52 4.16ZM17.72 8.52V9.4C17.72 9.488 17.792 9.56 17.88 9.56H19.48C19.568 9.56 19.64 9.488 19.64 9.4V8.52C19.64 8.432 19.568 8.36 19.48 8.36H17.88C17.792 8.36 17.72 8.432 17.72 8.52ZM17.974 4.576L17.352 3.954C17.3219 3.92422 17.2813 3.90752 17.239 3.90752C17.1967 3.90752 17.1561 3.92422 17.126 3.954L15.994 5.086C15.9642 5.11607 15.9475 5.15668 15.9475 5.199C15.9475 5.24132 15.9642 5.28193 15.994 5.312L16.616 5.934C16.678 5.996 16.78 5.996 16.842 5.934L17.974 4.802C18.036 4.74 18.036 4.638 17.974 4.576ZM8.802 3.954C8.77193 3.92422 8.73132 3.90752 8.689 3.90752C8.64668 3.90752 8.60607 3.92422 8.576 3.954L7.954 4.576C7.92422 4.60607 7.90752 4.64668 7.90752 4.689C7.90752 4.73132 7.92422 4.77193 7.954 4.802L9.086 5.934C9.148 5.996 9.25 5.996 9.312 5.934L9.934 5.312C9.996 5.25 9.996 5.148 9.934 5.086L8.802 3.954ZM7.96 8.36H6.36C6.272 8.36 6.2 8.432 6.2 8.52V9.4C6.2 9.488 6.272 9.56 6.36 9.56H7.96C8.048 9.56 8.12 9.488 8.12 9.4V8.52C8.12 8.432 8.048 8.36 7.96 8.36Z" fill="white"/>
</g>
<defs>
<filter id="filter0_d_3_67" x="0" y="0" width="25.92" height="24" filterUnits="userSpaceOnUse" color-interpolation-filters="sRGB">
<feFlood flood-opacity="0" result="BackgroundImageFix"/>
<feColorMatrix in="SourceAlpha" type="matrix" values="0 0 0 0 0 0 0 0 0 0 0 0 0 0 0 0 0 0 127 0" result="hardAlpha"/>
<feOffset dy="4"/>
<feGaussianBlur stdDeviation="2"/>
<feComposite in2="hardAlpha" operator="out"/>
<feColorMatrix type="matrix" values="0 0 0 0 0 0 0 0 0 0 0 0 0 0 0 0 0 0 0.25 0"/>
<feBlend mode="normal" in2="BackgroundImageFix" result="effect1_dropShadow_3_67"/>
<feBlend mode="normal" in="SourceGraphic" in2="effect1_dropShadow_3_67" result="shape"/>
</filter>
</defs>
</svg>
