<svg width="27" height="24" viewBox="0 0 27 24" fill="none" xmlns="http://www.w3.org/2000/svg">
<g filter="url(#filter0_d_3_130)">
<path d="M10.6704 2.66444C10.6704 1.95779 10.9512 1.28008 11.4508 0.780397C11.9505 0.280717 12.6282 0 13.3349 0C14.0415 0 14.7193 0.280717 15.2189 0.780397C15.7186 1.28008 15.9993 1.95779 15.9993 2.66444C15.9993 3.3711 15.7186 4.04881 15.2189 4.54849C14.7193 5.04817 14.0415 5.32889 13.3349 5.32889C12.6282 5.32889 11.9505 5.04817 11.4508 4.54849C10.9512 4.04881 10.6704 3.3711 10.6704 2.66444ZM13.3349 1.33356C13.1601 1.33356 12.9871 1.36798 12.8256 1.43486C12.6641 1.50175 12.5174 1.59978 12.3938 1.72336C12.2702 1.84695 12.1722 1.99366 12.1053 2.15514C12.0384 2.31661 12.004 2.48967 12.004 2.66444C12.004 2.83922 12.0384 3.01228 12.1053 3.17375C12.1722 3.33522 12.2702 3.48194 12.3938 3.60552C12.5174 3.72911 12.6641 3.82714 12.8256 3.89402C12.9871 3.96091 13.1601 3.99533 13.3349 3.99533C13.6879 3.99533 14.0264 3.85511 14.276 3.60552C14.5256 3.35593 14.6658 3.01742 14.6658 2.66444C14.6658 2.31147 14.5256 1.97295 14.276 1.72336C14.0264 1.47377 13.6879 1.33356 13.3349 1.33356ZM17.3356 3.33122C17.3356 3.06853 17.3873 2.80842 17.4878 2.56573C17.5883 2.32304 17.7357 2.10252 17.9214 1.91677C18.1072 1.73102 18.3277 1.58368 18.5704 1.48315C18.8131 1.38263 19.0732 1.33089 19.3359 1.33089C19.5986 1.33089 19.8587 1.38263 20.1014 1.48315C20.3441 1.58368 20.5646 1.73102 20.7503 1.91677C20.9361 2.10252 21.0834 2.32304 21.184 2.56573C21.2845 2.80842 21.3362 3.06853 21.3362 3.33122C21.3362 3.86174 21.1255 4.37054 20.7503 4.74567C20.3752 5.12081 19.8664 5.33155 19.3359 5.33155C18.8054 5.33155 18.2966 5.12081 17.9214 4.74567C17.5463 4.37054 17.3356 3.86174 17.3356 3.33122ZM19.3359 2.66444C19.159 2.66444 18.9895 2.73469 18.8644 2.85974C18.7394 2.98478 18.6691 3.15438 18.6691 3.33122C18.6691 3.50806 18.7394 3.67766 18.8644 3.8027C18.9895 3.92775 19.159 3.998 19.3359 3.998C19.5127 3.998 19.6823 3.92775 19.8074 3.8027C19.9324 3.67766 20.0027 3.50806 20.0027 3.33122C20.0027 3.15438 19.9324 2.98478 19.8074 2.85974C19.6823 2.73469 19.5127 2.66444 19.3359 2.66444ZM7.33389 1.33089C6.80337 1.33089 6.29458 1.54164 5.91944 1.91677C5.5443 2.29191 5.33356 2.8007 5.33356 3.33122C5.33356 3.86174 5.5443 4.37054 5.91944 4.74567C6.29458 5.12081 6.80337 5.33155 7.33389 5.33155C7.86441 5.33155 8.3732 5.12081 8.74834 4.74567C9.12347 4.37054 9.33422 3.86174 9.33422 3.33122C9.33422 2.8007 9.12347 2.29191 8.74834 1.91677C8.3732 1.54164 7.86441 1.33089 7.33389 1.33089ZM6.66711 3.33122C6.66711 3.15438 6.73736 2.98478 6.86241 2.85974C6.98745 2.73469 7.15705 2.66444 7.33389 2.66444C7.51073 2.66444 7.68033 2.73469 7.80537 2.85974C7.93042 2.98478 8.00067 3.15438 8.00067 3.33122C8.00067 3.50806 7.93042 3.67766 7.80537 3.8027C7.68033 3.92775 7.51073 3.998 7.33389 3.998C7.15705 3.998 6.98745 3.92775 6.86241 3.8027C6.73736 3.67766 6.66711 3.50806 6.66711 3.33122ZM8.35806 6.66511C8.12336 7.07031 8.00006 7.5304 8.00067 7.99867H5.33356V11.3326C5.33345 11.6643 5.41583 11.9908 5.57329 12.2827C5.73074 12.5747 5.95833 12.8229 6.23556 13.005C6.51279 13.1872 6.83096 13.2975 7.16143 13.3261C7.4919 13.3547 7.82429 13.3007 8.12869 13.1689C8.22737 13.6103 8.38206 14.0317 8.5821 14.4251C8.07597 14.6294 7.5274 14.7064 6.98457 14.6492C6.44175 14.592 5.92126 14.4024 5.46883 14.0971C5.0164 13.7917 4.64587 13.38 4.38976 12.8979C4.13366 12.4159 3.99982 11.8784 4 11.3326V7.99867C4 7.64499 4.1405 7.30579 4.39059 7.0557C4.64068 6.80561 4.97987 6.66511 5.33356 6.66511H8.35806ZM18.0877 14.4251C18.5938 14.6294 19.1424 14.7064 19.6852 14.6492C20.228 14.592 20.7485 14.4024 21.2009 14.0971C21.6534 13.7917 22.0239 13.38 22.28 12.8979C22.5361 12.4159 22.67 11.8784 22.6698 11.3326V7.99867C22.6698 7.64499 22.5293 7.30579 22.2792 7.0557C22.0291 6.80561 21.6899 6.66511 21.3362 6.66511H18.3117C18.5384 7.05718 18.6691 7.51192 18.6691 7.99867H21.3362V11.3326C21.3363 11.6643 21.254 11.9908 21.0965 12.2827C20.939 12.5747 20.7115 12.8229 20.4342 13.005C20.157 13.1872 19.8388 13.2975 19.5084 13.3261C19.1779 13.3547 18.8455 13.3007 18.5411 13.1689C18.4411 13.6103 18.2877 14.0317 18.0877 14.4251ZM10.6678 6.66378C10.3141 6.66378 9.9749 6.80428 9.72481 7.05437C9.47472 7.30446 9.33422 7.64365 9.33422 7.99733V11.9993C9.33422 13.0604 9.75572 14.078 10.506 14.8282C11.2563 15.5785 12.2738 16 13.3349 16C14.3959 16 15.4135 15.5785 16.1638 14.8282C16.9141 14.078 17.3356 13.0604 17.3356 11.9993V7.99867C17.3356 7.64499 17.1951 7.30579 16.945 7.0557C16.6949 6.80561 16.3557 6.66511 16.002 6.66511H10.6678V6.66378ZM10.6678 7.99733H16.002V11.9993C16.002 12.7067 15.721 13.3851 15.2208 13.8853C14.7206 14.3854 14.0423 14.6664 13.3349 14.6664C12.6275 14.6664 11.9491 14.3854 11.449 13.8853C10.9488 13.3851 10.6678 12.7067 10.6678 11.9993V7.99867V7.99733Z" fill="white"/>
</g>
<defs>
<filter id="filter0_d_3_130" x="0" y="0" width="26.6698" height="24" filterUnits="userSpaceOnUse" color-interpolation-filters="sRGB">
<feFlood flood-opacity="0" result="BackgroundImageFix"/>
<feColorMatrix in="SourceAlpha" type="matrix" values="0 0 0 0 0 0 0 0 0 0 0 0 0 0 0 0 0 0 127 0" result="hardAlpha"/>
<feOffset dy="4"/>
<feGaussianBlur stdDeviation="2"/>
<feComposite in2="hardAlpha" operator="out"/>
<feColorMatrix type="matrix" values="0 0 0 0 0 0 0 0 0 0 0 0 0 0 0 0 0 0 0.25 0"/>
<feBlend mode="normal" in2="BackgroundImageFix" result="effect1_dropShadow_3_130"/>
<feBlend mode="normal" in="SourceGraphic" in2="effect1_dropShadow_3_130" result="shape"/>
</filter>
</defs>
</svg>
